<svg width="32" height="30" viewBox="0 0 32 30" fill="none" xmlns="http://www.w3.org/2000/svg">
<path d="M28.1546 0H4.77753C4.47675 0 4.23303 0.235925 4.23303 0.526932V29.4731C4.23303 29.7641 4.47675 30 4.77753 30H28.1546C28.4554 30 28.6991 29.7641 28.6991 29.4731V0.526932C28.6991 0.235925 28.4554 0 28.1546 0ZM27.6101 7.23653H17.0106V1.05386H27.6101V7.23653ZM17.0106 15.5269H27.6101V21.7096H17.0106V15.5269ZM17.0106 14.4731V8.2904H27.6101V14.4731H17.0106ZM5.32203 1.05386H15.9216V28.9461H5.32203V1.05386ZM17.0106 28.9461V22.7635H27.6101V28.9461H17.0106Z" fill="#D1DAE3"/>
<path d="M14.3607 12.5761C14.0599 12.5761 13.8162 12.812 13.8162 13.103V16.897C13.8162 17.188 14.0599 17.4239 14.3607 17.4239C14.6614 17.4239 14.9052 17.188 14.9052 16.897V13.103C14.9052 12.812 14.6614 12.5761 14.3607 12.5761Z" fill="#D1DAE3"/>
</svg>
