<svg width="38" height="21" viewBox="0 0 38 21" fill="none" xmlns="http://www.w3.org/2000/svg">
<g clip-path="url(#clip0_26_524)">
<path d="M10.9134 13.162H3.0713C2.70287 13.162 2.38708 12.8662 2.38708 12.5211C2.38708 12.1761 2.70287 11.8803 3.0713 11.8803H10.8608C11.2292 11.8803 11.545 12.1761 11.545 12.5211C11.545 12.8662 11.2292 13.162 10.9134 13.162Z" fill="#D1DAE3"/>
<path d="M2.43974 21H2.38711C2.01869 21 1.75553 20.7042 1.75553 20.3592L2.43974 12.5704L0.966057 0.690139C0.913425 0.345069 1.17658 0.0492941 1.545 -1.68663e-06C1.91343 -0.0492975 2.22921 0.197181 2.28185 0.542252L3.75553 12.5211C3.75553 12.5704 3.75553 12.6197 3.75553 12.6197L3.07132 20.4577C3.07132 20.7535 2.75553 21 2.43974 21Z" fill="#D1DAE3"/>
<path d="M10.4397 21C10.1239 21 9.80816 20.7535 9.80816 20.4084L9.12395 12.5704C9.07131 12.2253 9.3871 11.9296 9.70289 11.9296C10.0713 11.8803 10.3871 12.1761 10.3871 12.4718L11.0713 20.3099C11.1239 20.6549 10.8082 20.9507 10.4924 20.9507C10.4397 21 10.4397 21 10.4397 21Z" fill="#D1DAE3"/>
<path d="M10.5976 13.162C10.2818 13.162 9.96603 12.9155 9.96603 12.6197L9.86076 11.338C9.86076 11.1408 9.70287 11.0423 9.49234 11.0423H5.01866C4.70287 11.0423 4.38708 10.7958 4.38708 10.5L3.49234 2.11972C3.38708 1.87324 3.17655 1.72535 2.86076 1.72535L1.80813 1.82394C1.43971 1.82394 1.12392 1.57746 1.07129 1.23239C1.07129 0.887322 1.33445 0.591547 1.70287 0.591547L2.7555 0.492955C3.70287 0.394364 4.54497 1.03521 4.7555 1.87324V1.92253L5.59761 9.76056H9.43971C10.3344 9.76056 11.0187 10.4014 11.1239 11.1901L11.2292 12.4718C11.2818 12.8169 11.0187 13.1127 10.6502 13.162C10.6502 13.162 10.6502 13.162 10.5976 13.162Z" fill="#D1DAE3"/>
<path d="M14.2819 21C13.9134 21 13.5977 20.7042 13.5977 20.3592V6.40845C13.5977 6.06338 13.9134 5.7676 14.2819 5.7676C14.6503 5.7676 14.9661 6.06338 14.9661 6.40845V20.4085C14.9134 20.7535 14.6503 21 14.2819 21Z" fill="#D1DAE3"/>
<path d="M24.6503 21C24.2819 21 23.9661 20.7042 23.9661 20.3592V6.40845C23.9661 6.06338 24.2819 5.7676 24.6503 5.7676C25.0187 5.7676 25.3345 6.06338 25.3345 6.40845V20.4085C25.2819 20.7535 25.0187 21 24.6503 21Z" fill="#D1DAE3"/>
<path d="M26.8608 7H12.0713C11.7029 7 11.3871 6.70422 11.3871 6.35915C11.3871 6.01408 11.7029 5.71831 12.0713 5.71831H26.9134C27.2818 5.71831 27.5976 6.01408 27.5976 6.35915C27.5976 6.70422 27.2292 7 26.8608 7Z" fill="#D1DAE3"/>
<path d="M35.8082 13.162H28.0187C27.6503 13.162 27.3345 12.8662 27.3345 12.5211C27.3345 12.1761 27.6503 11.8803 28.0187 11.8803H35.8082C36.1766 11.8803 36.4924 12.1761 36.4924 12.5211C36.4924 12.8662 36.1766 13.162 35.8082 13.162Z" fill="#D1DAE3"/>
<path d="M36.4925 21C36.1768 21 35.861 20.7535 35.861 20.4085L35.1768 12.6197C35.1768 12.5704 35.1768 12.5211 35.1768 12.5211L36.6504 0.542252C36.7031 0.197181 37.0189 -0.0492975 37.3873 -1.68663e-06C37.7557 0.0492941 38.0189 0.345069 37.9662 0.690139L36.4925 12.5704L37.1768 20.3592C37.2294 20.7042 36.9136 21 36.5978 21C36.5452 21 36.4925 21 36.4925 21Z" fill="#D1DAE3"/>
<path d="M28.4924 21H28.4398C28.0714 20.9507 27.8082 20.6549 27.8608 20.3592L28.545 12.5211C28.5977 12.1761 28.9135 11.9296 29.2293 11.9789C29.5977 12.0282 29.8608 12.3239 29.8082 12.6197L29.124 20.4577C29.124 20.7535 28.8608 21 28.4924 21Z" fill="#D1DAE3"/>
<path d="M28.2818 13.162H28.2292C27.8608 13.1127 27.5976 12.8169 27.6503 12.4718L27.7555 11.1901C27.8082 10.3521 28.545 9.76056 29.4397 9.76056H33.2818L34.1239 1.92253V1.87324C34.3345 1.03521 35.1766 0.44366 36.1239 0.492956L37.1766 0.591548C37.545 0.640844 37.8082 0.936618 37.7555 1.23239C37.7029 1.57746 37.3871 1.82394 37.0713 1.77465L36.0187 1.67605C35.7555 1.67605 35.4924 1.82394 35.4397 2.07042L34.545 10.4014C34.4924 10.6972 34.2292 10.9437 33.9134 10.9437H29.4924C29.2818 10.9437 29.1239 11.0915 29.1239 11.2394L29.0187 12.5211C28.9134 12.9648 28.6503 13.162 28.2818 13.162Z" fill="#D1DAE3"/>
</g>
<defs>
<clipPath id="clip0_26_524">
<rect width="37" height="21" fill="white" transform="translate(0.966064)"/>
</clipPath>
</defs>
</svg>
