<svg width="31" height="31" viewBox="0 0 31 31" fill="none" xmlns="http://www.w3.org/2000/svg">
<g clip-path="url(#clip0_45_6)">
<path d="M15.4661 30.5454C23.74 30.5454 30.4661 23.8193 30.4661 15.5454C30.4661 7.27152 23.74 0.54541 15.4661 0.54541C7.19218 0.54541 0.466064 7.27152 0.466064 15.5454C0.466064 23.8193 7.19218 30.5454 15.4661 30.5454ZM15.4661 1.88299C23.0043 1.88299 29.1285 8.00719 29.1285 15.5454C29.1285 23.0836 23.0043 29.2078 15.4661 29.2078C7.92785 29.2078 1.80364 23.0836 1.80364 15.5454C1.80364 8.00719 7.92785 1.88299 15.4661 1.88299Z" fill="#D1DAE3"/>
<path d="M21.7241 10.1664C21.7241 10.1569 21.7241 10.1473 21.7241 10.1282C21.6763 9.6505 21.3037 9.28745 20.8547 9.28745L15.1413 9.14413C14.998 9.14413 14.8547 9.20146 14.7496 9.297L7.70816 16.3384C7.53618 16.5104 7.4502 16.7301 7.4502 16.9594C7.4502 17.1887 7.54574 17.418 7.70816 17.5804L13.412 23.2843C13.584 23.4562 13.8133 23.5422 14.033 23.5422C14.2527 23.5422 14.482 23.4562 14.654 23.2843L21.7145 16.2524C21.8196 16.1473 21.8769 16.004 21.8674 15.8607L21.7241 10.1664ZM14.0234 22.4244L8.57758 16.9785L15.3324 10.2238L20.6636 10.3575L20.7973 15.6887L14.0234 22.4244Z" fill="#D1DAE3"/>
<path d="M17.1763 11.7906C16.0584 11.7906 15.1412 12.7078 15.1412 13.8257C15.1412 14.9435 16.0584 15.8607 17.1763 15.8607C18.2941 15.8607 19.2113 14.9435 19.2113 13.8257C19.2113 12.6983 18.3037 11.7906 17.1763 11.7906ZM17.1763 14.8002C16.6412 14.8002 16.2017 14.3607 16.2017 13.8257C16.2017 13.2906 16.6412 12.8511 17.1763 12.8511C17.7113 12.8511 18.1508 13.2906 18.1508 13.8257C18.1508 14.3607 17.7113 14.8002 17.1763 14.8002Z" fill="#D1DAE3"/>
</g>
<defs>
<clipPath id="clip0_45_6">
<rect width="30" height="30" fill="white" transform="translate(0.466064 0.54541)"/>
</clipPath>
</defs>
</svg>
