<svg width="31" height="30" viewBox="0 0 31 30" fill="none" xmlns="http://www.w3.org/2000/svg">
<g clip-path="url(#clip0_26_519)">
<path d="M15.4661 30C23.74 30 30.4661 23.2739 30.4661 15C30.4661 6.72611 23.74 0 15.4661 0C7.19218 0 0.466064 6.72611 0.466064 15C0.466064 23.2739 7.19218 30 15.4661 30ZM15.4661 1.33758C23.0043 1.33758 29.1285 7.46178 29.1285 15C29.1285 22.5382 23.0043 28.6624 15.4661 28.6624C7.92785 28.6624 1.80364 22.5382 1.80364 15C1.80364 7.46178 7.92785 1.33758 15.4661 1.33758Z" fill="#D1DAE3"/>
<path d="M11.7686 13.6529C13.2973 13.6529 14.5393 12.4108 14.5393 10.8822C14.5393 9.3535 13.2973 8.11147 11.7686 8.11147C10.24 8.11147 8.99792 9.3535 8.99792 10.8822C8.99792 12.4108 10.24 13.6529 11.7686 13.6529ZM11.7686 9.44905C12.5616 9.44905 13.2017 10.0892 13.2017 10.8822C13.2017 11.6752 12.5616 12.3153 11.7686 12.3153C10.9756 12.3153 10.3355 11.6752 10.3355 10.8822C10.3355 10.0892 10.9756 9.44905 11.7686 9.44905Z" fill="#D1DAE3"/>
<path d="M16.2303 19.2898C16.2303 20.8185 17.4724 22.0605 19.001 22.0605C20.5297 22.0605 21.7717 20.8185 21.7717 19.2898C21.7717 17.7611 20.5297 16.5191 19.001 16.5191C17.4628 16.5191 16.2303 17.7611 16.2303 19.2898ZM20.4246 19.2898C20.4246 20.0828 19.7845 20.7229 18.9915 20.7229C18.1985 20.7229 17.5584 20.0828 17.5584 19.2898C17.5584 18.4968 18.1985 17.8567 18.9915 17.8567C19.7845 17.8567 20.4246 18.4968 20.4246 19.2898Z" fill="#D1DAE3"/>
<path d="M10.3738 22.8057C10.6795 23.0064 11.0999 22.9204 11.3005 22.6147L20.7591 8.12102C20.8929 7.92039 20.9024 7.66243 20.7973 7.45223C20.6922 7.24204 20.4725 7.09873 20.2336 7.08918C19.9948 7.07962 19.7655 7.19427 19.6413 7.39491L10.1827 21.8885C9.97249 22.1943 10.068 22.6051 10.3738 22.8057Z" fill="#D1DAE3"/>
</g>
<defs>
<clipPath id="clip0_26_519">
<rect width="30" height="30" fill="white" transform="translate(0.466064)"/>
</clipPath>
</defs>
</svg>
