<svg width="35" height="33" viewBox="0 0 35 33" fill="none" xmlns="http://www.w3.org/2000/svg">
<g clip-path="url(#clip0_26_551)">
<path d="M29.7342 20.8516C29.4421 20.8516 29.2084 20.6099 29.2084 20.3077V15.8352C29.2084 15.3516 28.7995 14.9286 28.3321 14.9286H28.1568C27.6895 14.9286 27.2806 15.3516 27.2806 15.8352C27.2806 16.1374 27.0469 16.3791 26.7548 16.3791C26.4627 16.3791 26.229 16.1374 26.229 15.8352C26.229 14.7473 27.1053 13.8407 28.1568 13.8407H28.3321C29.3836 13.8407 30.2599 14.7473 30.2599 15.8352V20.3077C30.2599 20.5495 30.0263 20.8516 29.7342 20.8516Z" fill="#D1DAE3"/>
<path d="M33.9403 33H11.9746C11.6825 33 11.4489 32.7582 11.4489 32.456V20.3077C11.4489 20.0055 11.6825 19.7637 11.9746 19.7637H33.9403C34.2324 19.7637 34.466 20.0055 34.466 20.3077V32.5165C34.466 32.7582 34.2324 33 33.9403 33ZM12.5004 31.9121H33.4145V20.8516H12.5004V31.9121Z" fill="#D1DAE3"/>
<path d="M33.9402 9.91209H22.9574C22.6653 9.91209 22.4316 9.67033 22.4316 9.36813V0.543956C22.4316 0.241758 22.6653 0 22.9574 0H33.9402C34.2323 0 34.466 0.241758 34.466 0.543956V9.36813C34.466 9.67033 34.2323 9.91209 33.9402 9.91209ZM23.4832 8.82418H33.4145V1.08791H23.4832V8.82418Z" fill="#D1DAE3"/>
<path d="M18.576 28.044H16.2976C16.0055 28.044 15.7719 27.8022 15.7719 27.5C15.7719 27.1978 16.0055 26.956 16.2976 26.956H18.576C18.8681 26.956 19.1017 27.1978 19.1017 27.5C19.1017 27.8022 18.8681 28.044 18.576 28.044Z" fill="#D1DAE3"/>
<path d="M22.9574 33C22.6653 33 22.4316 32.7582 22.4316 32.456V20.3077C22.4316 20.0055 22.6653 19.7637 22.9574 19.7637C23.2495 19.7637 23.4832 20.0055 23.4832 20.3077V32.5165C23.4832 32.7582 23.2495 33 22.9574 33Z" fill="#D1DAE3"/>
<path d="M25.2942 28.1044C25.0021 28.1044 24.7684 27.8626 24.7684 27.5604V25.2637C24.7684 24.9615 25.0021 24.7198 25.2942 24.7198C25.5863 24.7198 25.82 24.9615 25.82 25.2637V27.5604C25.82 27.8626 25.5863 28.1044 25.2942 28.1044Z" fill="#D1DAE3"/>
<path d="M22.9574 25.6264H11.9746C11.6825 25.6264 11.4489 25.3846 11.4489 25.0824C11.4489 24.7802 11.6825 24.5385 11.9746 24.5385H22.9574C23.2495 24.5385 23.4832 24.7802 23.4832 25.0824C23.4832 25.3846 23.2495 25.6264 22.9574 25.6264Z" fill="#D1DAE3"/>
<path d="M18.576 23.2692H16.2976C16.0055 23.2692 15.7719 23.0275 15.7719 22.7253C15.7719 22.4231 16.0055 22.1813 16.2976 22.1813H18.576C18.8681 22.1813 19.1017 22.4231 19.1017 22.7253C19.1017 23.0275 18.8681 23.2692 18.576 23.2692Z" fill="#D1DAE3"/>
<path d="M29.5589 7.4945H27.2805C26.9884 7.4945 26.7548 7.25275 26.7548 6.95055C26.7548 6.64835 26.9884 6.40659 27.2805 6.40659H29.5589C29.851 6.40659 30.0847 6.64835 30.0847 6.95055C30.0847 7.25275 29.851 7.4945 29.5589 7.4945Z" fill="#D1DAE3"/>
<path d="M22.9574 9.91209H11.9746C11.6825 9.91209 11.4489 9.67033 11.4489 9.36813V0.543956C11.4489 0.241758 11.6825 0 11.9746 0H22.9574C23.2495 0 23.4832 0.241758 23.4832 0.543956C23.4832 0.846154 23.2495 1.08791 22.9574 1.08791H12.5004V8.82418H22.9574C23.2495 8.82418 23.4832 9.06593 23.4832 9.36813C23.4832 9.67033 23.2495 9.91209 22.9574 9.91209Z" fill="#D1DAE3"/>
<path d="M18.576 7.4945H16.2976C16.0055 7.4945 15.7719 7.25275 15.7719 6.95055C15.7719 6.64835 16.0055 6.40659 16.2976 6.40659H18.576C18.8681 6.40659 19.1017 6.64835 19.1017 6.95055C19.1017 7.25275 18.8681 7.4945 18.576 7.4945Z" fill="#D1DAE3"/>
<path d="M29.9678 19.6429C29.9678 19.8846 30.143 20.0659 30.3767 20.0659C30.6104 20.0659 30.7856 19.8846 30.7856 19.6429C30.7856 19.4011 30.6104 19.2198 30.3767 19.2198C30.143 19.2198 29.9678 19.4615 29.9678 19.6429Z" fill="#D1DAE3"/>
<path d="M30.3767 20.6099C29.851 20.6099 29.442 20.1868 29.442 19.6429C29.442 19.0989 29.851 18.6758 30.3767 18.6758C30.9025 18.6758 31.3114 19.0989 31.3114 19.6429C31.3114 20.1868 30.9025 20.6099 30.3767 20.6099ZM30.3767 19.522C30.3183 19.522 30.2599 19.5824 30.2599 19.6429C30.2599 19.7637 30.4936 19.7637 30.4936 19.6429C30.4936 19.5824 30.4351 19.522 30.3767 19.522Z" fill="#D1DAE3"/>
<path d="M28.6826 19.6429C28.6826 19.8846 28.8579 20.0659 29.0916 20.0659C29.3252 20.0659 29.5005 19.8846 29.5005 19.6429C29.5005 19.4011 29.3252 19.2198 29.0916 19.2198C28.8579 19.2198 28.6826 19.4615 28.6826 19.6429Z" fill="#D1DAE3"/>
<path d="M29.1499 20.6099C28.6241 20.6099 28.2152 20.1868 28.2152 19.6429C28.2152 19.0989 28.6241 18.6758 29.1499 18.6758C29.6757 18.6758 30.0846 19.0989 30.0846 19.6429C30.0846 20.1868 29.6173 20.6099 29.1499 20.6099ZM29.1499 19.522C29.0915 19.522 29.0331 19.5824 29.0331 19.6429C29.0331 19.7637 29.2668 19.7637 29.2668 19.6429C29.2083 19.5824 29.2083 19.522 29.1499 19.522Z" fill="#D1DAE3"/>
<path d="M12.15 9.91209H1.40083C1.16715 9.91209 0.991895 9.79121 0.875057 9.54945C0.816637 9.30769 0.875057 9.06593 1.05031 8.94506L4.26337 6.46703V0.543956C4.26337 0.241758 4.49705 0 4.78915 0H8.76165C9.05375 0 9.28743 0.241758 9.28743 0.543956V6.46703L12.5005 8.94506C12.6757 9.06593 12.7342 9.30769 12.6757 9.54945C12.6173 9.79121 12.3836 9.91209 12.15 9.91209ZM2.91973 8.82418H10.5727L8.41114 7.13187C8.2943 7.01099 8.17746 6.89011 8.17746 6.70879V1.08791H5.2565V6.70879C5.2565 6.89011 5.19808 7.01099 5.02282 7.13187L2.91973 8.82418Z" fill="#D1DAE3"/>
<path d="M11.9747 33H0.991838C0.699741 33 0.466064 32.7582 0.466064 32.456V20.3077C0.466064 20.0055 0.699741 19.7637 0.991838 19.7637H11.9747C12.2668 19.7637 12.5004 20.0055 12.5004 20.3077C12.5004 20.6099 12.2668 20.8516 11.9747 20.8516H1.51761V31.9725H11.9747C12.2668 31.9725 12.5004 32.2143 12.5004 32.5165C12.5004 32.8187 12.2668 33 11.9747 33Z" fill="#D1DAE3"/>
<path d="M10.2221 23.6923H2.7444C2.4523 23.6923 2.21863 23.4506 2.21863 23.1484C2.21863 22.8462 2.4523 22.6044 2.7444 22.6044H10.2221C10.5142 22.6044 10.7478 22.8462 10.7478 23.1484C10.7478 23.4506 10.5142 23.6923 10.2221 23.6923Z" fill="#D1DAE3"/>
</g>
<defs>
<clipPath id="clip0_26_551">
<rect width="34" height="33" fill="white" transform="translate(0.466064)"/>
</clipPath>
</defs>
</svg>
