<svg width="35" height="34" viewBox="0 0 35 34" fill="none" xmlns="http://www.w3.org/2000/svg">
<path fill-rule="evenodd" clip-rule="evenodd" d="M15.3411 5.84375V6.375H5.77856C5.35569 6.375 4.95035 6.54287 4.65178 6.84197C4.35269 7.14053 4.18481 7.54588 4.18481 7.96875C4.18481 11.6641 4.18481 23.9296 4.18481 27.625C4.18481 28.0479 4.35269 28.4532 4.65178 28.7518C4.95035 29.0509 5.35569 29.2188 5.77856 29.2188H6.30981V30.8008C6.30981 31.0941 6.54781 31.3321 6.84106 31.3321H10.0286C10.3218 31.3321 10.5598 31.0941 10.5598 30.8008V29.2188H24.3723V30.8008C24.3723 31.0941 24.6103 31.3321 24.9036 31.3321H28.0911C28.3843 31.3321 28.6223 31.0941 28.6223 30.8008V29.2188H29.1536C29.5764 29.2188 29.9818 29.0509 30.2803 28.7518C30.5794 28.4532 30.7473 28.0479 30.7473 27.625V7.96875C30.7473 7.54588 30.5794 7.14053 30.2803 6.84197C29.9818 6.54287 29.5764 6.375 29.1536 6.375H19.5911V5.84375H20.6536C20.9468 5.84375 21.1848 5.60575 21.1848 5.3125V3.1875C21.1848 2.89425 20.9468 2.65625 20.6536 2.65625H14.1458C13.8525 2.65625 13.6145 2.89425 13.6145 3.1875V5.3125C13.6145 5.60575 13.8525 5.84375 14.1458 5.84375H15.3411ZM9.49731 29.384V30.2696H7.37231V29.384H9.49731ZM27.5598 29.2188V30.2696H25.4348V29.2188H26.0038H27.5598ZM21.1471 12.2188C20.8889 14.0202 19.3382 15.4062 17.4661 15.4062C15.5939 15.4062 14.0432 14.0202 13.785 12.2188H5.24731V27.625C5.24731 27.7658 5.3031 27.9013 5.40297 28.0006C5.50231 28.1005 5.63778 28.1562 5.77856 28.1562H29.1536C29.2943 28.1562 29.4298 28.1005 29.5292 28.0006C29.629 27.9013 29.6848 27.7658 29.6848 27.625V12.2188H21.1471ZM22.2473 23.9062C22.2473 23.613 22.0093 23.375 21.7161 23.375H19.0598C18.7666 23.375 18.5286 23.613 18.5286 23.9062V26.5625C18.5286 26.8557 18.7666 27.0938 19.0598 27.0938H21.7161C22.0093 27.0938 22.2473 26.8557 22.2473 26.5625V23.9062ZM16.4036 23.9062C16.4036 23.613 16.1656 23.375 15.8723 23.375H13.2161C12.9228 23.375 12.6848 23.613 12.6848 23.9062V26.5625C12.6848 26.8557 12.9228 27.0938 13.2161 27.0938H15.8723C16.1656 27.0938 16.4036 26.8557 16.4036 26.5625V23.9062ZM15.3411 24.4375V26.0312H13.7473V24.4375H15.3411ZM21.1848 24.4375V26.0312H19.5911V24.4375H21.1848ZM24.3723 16.4688C24.3723 16.1755 24.1343 15.9375 23.8411 15.9375H11.0911C10.7978 15.9375 10.5598 16.1755 10.5598 16.4688V21.7812C10.5598 22.0745 10.7978 22.3125 11.0911 22.3125H23.8411C24.1343 22.3125 24.3723 22.0745 24.3723 21.7812V16.4688ZM23.3098 17V21.25H11.6223V17H23.3098ZM17.4661 9.03125C18.9323 9.03125 20.1223 10.2213 20.1223 11.6875C20.1223 13.1538 18.9323 14.3438 17.4661 14.3438C15.9998 14.3438 14.8098 13.1538 14.8098 11.6875C14.8098 10.2213 15.9998 9.03125 17.4661 9.03125ZM18.1253 12.9583C18.1742 12.903 18.1636 12.8169 18.1025 12.776C17.9192 12.6528 17.7003 12.5731 17.4645 12.5731C17.2291 12.5731 17.0103 12.6528 16.827 12.7755C16.7659 12.8164 16.7553 12.9025 16.8047 12.9572L17.3758 13.5942C17.423 13.6468 17.5054 13.6468 17.5532 13.5942L18.1253 12.9583ZM17.4645 12.0434C17.8496 12.0434 18.205 12.1709 18.4908 12.385C18.5413 12.4222 18.6109 12.4185 18.6529 12.3717L18.8574 12.1444C18.9036 12.0928 18.8988 12.0116 18.8447 11.9696C18.4627 11.6726 17.9846 11.4835 17.4645 11.4835C16.9454 11.4835 16.4678 11.6721 16.0864 11.968C16.0322 12.01 16.0274 12.0913 16.0731 12.1428L16.2777 12.3702C16.3196 12.4174 16.3892 12.4217 16.4397 12.384C16.7255 12.1704 17.0798 12.0434 17.4645 12.0434ZM17.4645 10.939C18.1333 10.939 18.7464 11.1727 19.2298 11.5605C19.2792 11.6004 19.3504 11.5961 19.3929 11.5488L19.5773 11.3438C19.6229 11.2933 19.6187 11.2131 19.5656 11.1701C18.9918 10.7004 18.2619 10.379 17.4645 10.379C16.6687 10.379 15.9398 10.6994 15.3666 11.1674C15.3134 11.2104 15.3092 11.2907 15.3549 11.3417L15.5387 11.5462C15.5812 11.594 15.6518 11.5983 15.7018 11.5584C16.1847 11.1717 16.7967 10.939 17.4645 10.939ZM29.1536 7.4375H5.77856C5.63778 7.4375 5.50231 7.49328 5.40297 7.59316C5.3031 7.6925 5.24731 7.82797 5.24731 7.96875V11.1562H13.785C14.0432 9.35478 15.5939 7.96875 17.4661 7.96875C19.3382 7.96875 20.8889 9.35478 21.1471 11.1562H29.6848V7.96875C29.6848 7.82797 29.629 7.6925 29.5292 7.59316C29.4298 7.49328 29.2943 7.4375 29.1536 7.4375ZM18.5286 5.84375H17.1123H16.4036V6.375H18.5286V5.84375ZM19.0609 4.78125H20.1223V3.71875H14.677V4.78125H15.8718H15.8723H19.0598H19.0609Z" fill="#D1DAE3"/>
</svg>
