<svg width="36" height="27" viewBox="0 0 36 27" fill="none" xmlns="http://www.w3.org/2000/svg">
<g clip-path="url(#clip0_26_587)">
<path d="M28.3117 7.10526H25.6574C25.3487 7.10526 25.1018 6.85812 25.1018 6.5492C25.1018 6.24027 25.3487 5.99313 25.6574 5.99313H28.3117C28.6203 5.99313 28.8672 6.24027 28.8672 6.5492C28.8672 6.85812 28.6203 7.10526 28.3117 7.10526Z" fill="#D1DAE3"/>
<path d="M28.3117 7.10526C28.0031 7.10526 27.7562 6.85812 27.7562 6.5492V1.60641C27.7562 1.35927 27.5093 1.17391 27.2623 1.17391H9.66976C9.42284 1.17391 9.17593 1.35927 9.17593 1.60641V6.5492C9.17593 6.85812 8.92902 7.10526 8.62037 7.10526C8.31173 7.10526 8.06482 6.85812 8.06482 6.5492V1.60641C8.06482 0.741417 8.80556 0.0617828 9.66976 0.0617828H27.2623C28.1265 0.0617828 28.8673 0.741417 28.8673 1.60641V6.5492C28.8673 6.85812 28.6204 7.10526 28.3117 7.10526Z" fill="#D1DAE3"/>
<path d="M34.7314 25.6407H2.20058C1.89193 25.6407 1.64502 25.3936 1.64502 25.0847C1.64502 24.7757 1.89193 24.5286 2.20058 24.5286H34.7314C35.0401 24.5286 35.287 24.7757 35.287 25.0847C35.287 25.3936 35.0401 25.6407 34.7314 25.6407Z" fill="#D1DAE3"/>
<path d="M34.7315 27C34.4228 27 34.1759 26.7529 34.1759 26.4439V25.1465C34.1759 24.8375 34.4228 24.5904 34.7315 24.5904C35.0401 24.5904 35.287 24.8375 35.287 25.1465V26.4439C35.287 26.7529 35.0401 27 34.7315 27Z" fill="#D1DAE3"/>
<path d="M2.20058 27C1.89193 27 1.64502 26.7529 1.64502 26.4439V25.1465C1.64502 24.8375 1.89193 24.5904 2.20058 24.5904C2.50922 24.5904 2.75613 24.8375 2.75613 25.1465V26.4439C2.75613 26.7529 2.50922 27 2.20058 27Z" fill="#D1DAE3"/>
<path d="M18.7438 10.0092C18.6821 10.0092 18.6821 10.0092 18.6204 10.0092C18.3117 9.94737 18.1265 9.63844 18.1883 9.32952C18.1883 9.32952 18.3734 8.34096 18.3734 6.67277C18.3734 5.62242 18.3117 4.81922 18.25 4.38672C17.7562 4.32494 16.645 4.20137 14.7932 4.20137C13.8673 4.20137 13.0648 4.26315 12.4475 4.32494C12.1389 4.38672 11.892 4.57208 11.8302 4.81922C11.7685 5.25171 11.645 5.99313 11.645 6.73455C11.645 7.04347 11.3981 7.29061 11.0895 7.29061C10.7808 7.29061 10.5339 7.04347 10.5339 6.73455C10.5339 5.93135 10.6574 5.12814 10.7191 4.63386C10.8426 3.89244 11.4599 3.33638 12.2623 3.21281C12.8796 3.15103 13.7438 3.08924 14.7315 3.08924C17.571 3.08924 18.7438 3.39817 18.8055 3.39817C18.9907 3.45995 19.1759 3.6453 19.2376 3.83066C19.2376 3.89244 19.4846 4.94279 19.4846 6.73455C19.4846 8.52631 19.2376 9.57666 19.2376 9.57666C19.1759 9.82379 18.9907 10.0092 18.7438 10.0092Z" fill="#D1DAE3"/>
<path d="M21.5833 10.0092C21.2746 10.0092 21.0277 9.76201 21.0277 9.45309C21.0277 9.14416 21.2746 8.89702 21.5833 8.89702H24.2993C24.6697 8.89702 24.9784 8.64988 24.9784 8.34096C25.0401 7.84668 25.0401 7.29062 25.0401 6.73455C25.0401 6.05492 24.9784 5.43707 24.9166 4.88101C24.9166 4.57208 24.608 4.38673 24.2993 4.32494C23.7438 4.26316 22.9413 4.20137 22.0154 4.20137C20.0401 4.20137 18.929 4.32494 18.4351 4.44851C18.1265 4.5103 17.8179 4.32494 17.8179 4.01602C17.7561 3.70709 17.9413 3.39817 18.25 3.39817C18.8672 3.21281 20.1018 3.02746 22.1388 3.02746C23.1265 3.02746 23.929 3.08924 24.5463 3.15103C25.4105 3.21281 26.0277 3.89245 26.1512 4.69565C26.2129 5.3135 26.2746 5.99313 26.2746 6.67277C26.2746 7.29062 26.2746 7.84668 26.2129 8.40274C26.1512 9.32952 25.3487 9.94737 24.4228 10.0092H21.5833Z" fill="#D1DAE3"/>
<path d="M22.0772 10.0091H18.9907C18.6821 10.0091 18.4352 9.76201 18.4352 9.45308C18.4352 9.14416 18.6821 8.89702 18.9907 8.89702H22.0772C22.3858 8.89702 22.6327 9.14416 22.6327 9.45308C22.6327 9.76201 22.3858 10.0091 22.0772 10.0091Z" fill="#D1DAE3"/>
<path d="M5.84255 10.3799C5.78082 10.3799 5.65737 10.3799 5.59564 10.3181C5.34873 10.1945 5.22527 9.82379 5.34873 9.57665C5.59564 9.14416 6.02774 8.89702 6.45984 8.89702H18.929C19.2376 8.89702 19.4845 9.14416 19.4845 9.45308C19.4845 9.76201 19.2376 10.0091 18.929 10.0091H6.45984C6.39811 10.0091 6.33638 10.0709 6.33638 10.1327C6.21292 10.2563 6.02774 10.3799 5.84255 10.3799Z" fill="#D1DAE3"/>
<path d="M2.571 25.6407H1.52162C1.21298 25.6407 0.966064 25.3936 0.966064 25.0847V18.7826C0.966064 18.1648 1.15125 17.4851 1.39816 16.9291L5.34878 9.57665C5.47224 9.32951 5.84261 9.20594 6.08952 9.32951C6.33643 9.45308 6.45989 9.82379 6.33643 10.0709L2.38582 17.4233C2.20063 17.794 2.07718 18.2883 2.07718 18.7208V24.5286H2.571C2.87964 24.5286 3.12656 24.7757 3.12656 25.0847C3.12656 25.3936 2.87964 25.6407 2.571 25.6407Z" fill="#D1DAE3"/>
<path d="M7.07717 10.0092C7.01544 10.0092 6.89199 10.0092 6.83026 9.94737C6.58334 9.8238 6.45989 9.45309 6.58334 9.20595L8.12655 6.30206C8.25001 6.1167 8.4352 5.99313 8.62038 5.99313H10.9661C11.2747 5.99313 11.5216 6.24027 11.5216 6.5492C11.5216 6.85812 11.2747 7.10526 10.9661 7.10526H8.92902L7.50927 9.70023C7.44754 9.88558 7.26236 10.0092 7.07717 10.0092Z" fill="#D1DAE3"/>
<path d="M29.855 10.0091C29.6698 10.0091 29.4846 9.88558 29.3611 9.70022L27.8179 6.79633C27.6945 6.54919 27.7562 6.17849 28.0648 6.05492C28.3117 5.93135 28.6821 5.99313 28.8056 6.30205L30.3488 9.20594C30.4722 9.45308 30.4105 9.82379 30.1019 9.94736C30.0401 9.94736 29.9167 10.0091 29.855 10.0091Z" fill="#D1DAE3"/>
<path d="M12.4476 10.0091C11.5216 10.0091 10.7192 9.32951 10.6574 8.40274C10.5957 7.84668 10.5957 7.29061 10.5957 6.67276C10.5957 6.36384 10.8426 6.1167 11.1513 6.1167C11.4599 6.1167 11.7068 6.36384 11.7068 6.67276C11.7068 7.22883 11.7068 7.78489 11.7685 8.27917C11.7685 8.58809 12.0772 8.83523 12.4476 8.83523C12.7562 8.83523 13.0031 9.08237 13.0031 9.3913C13.0031 9.76201 12.7562 10.0091 12.4476 10.0091Z" fill="#D1DAE3"/>
<path d="M31.0895 10.3799C30.9043 10.3799 30.7191 10.2563 30.5957 10.0709C30.5957 10.0091 30.5339 9.94736 30.4722 9.94736H18.0031C17.6944 9.94736 17.4475 9.70022 17.4475 9.3913C17.4475 9.08237 17.6944 8.83524 18.0031 8.83524H30.4722C30.966 8.83524 31.3981 9.08237 31.5833 9.51487C31.7068 9.76201 31.645 10.1327 31.3364 10.2563C31.2747 10.3799 31.1512 10.3799 31.0895 10.3799Z" fill="#D1DAE3"/>
<path d="M35.4106 25.6407C35.1019 25.6407 34.855 25.3936 34.855 25.0847V18.7826C34.855 18.2883 34.7315 17.8558 34.5464 17.4851L30.5957 10.1327C30.4723 9.88558 30.534 9.51487 30.8427 9.3913C31.0896 9.26773 31.4599 9.32952 31.5834 9.63844L35.534 16.9908C35.8427 17.5469 35.9661 18.1648 35.9661 18.8444V25.2082C35.9661 25.3936 35.7192 25.6407 35.4106 25.6407Z" fill="#D1DAE3"/>
</g>
<defs>
<clipPath id="clip0_26_587">
<rect width="35" height="27" fill="white" transform="translate(0.966064)"/>
</clipPath>
</defs>
</svg>
