<svg width="16" height="16" viewBox="0 0 16 16" fill="none" xmlns="http://www.w3.org/2000/svg">
<path d="M11.3333 2.33334H4.66658C2.66659 2.33334 1.33325 3.33334 1.33325 5.66668V10.3333C1.33325 12.6667 2.66659 13.6667 4.66658 13.6667H11.3333C13.3333 13.6667 14.6666 12.6667 14.6666 10.3333V5.66668C14.6666 3.33334 13.3333 2.33334 11.3333 2.33334ZM11.6466 6.39334L9.55992 8.06001C9.11992 8.41334 8.55992 8.58668 7.99992 8.58668C7.43992 8.58668 6.87325 8.41334 6.43992 8.06001L4.35325 6.39334C4.13992 6.22001 4.10659 5.90001 4.27325 5.68668C4.44658 5.47334 4.75992 5.43334 4.97325 5.60668L7.05992 7.27334C7.56659 7.68001 8.42658 7.68001 8.93325 7.27334L11.0199 5.60668C11.2333 5.43334 11.5533 5.46668 11.7199 5.68668C11.8933 5.90001 11.8599 6.22001 11.6466 6.39334Z" fill="white"/>
</svg>
