<svg width="7" height="12" viewBox="0 0 7 12" fill="none" xmlns="http://www.w3.org/2000/svg">
<g clip-path="url(#clip0_26_496)">
<path d="M4.67593 0.676754C3.06737 0.137094 1.28132 0.88354 0.682271 2.34617C0.0887683 3.81385 0.909687 5.43787 2.51825 5.97753C4.13235 6.51719 5.9184 5.77075 6.51191 4.30812C7.10541 2.84044 6.28449 1.21641 4.67593 0.676754ZM4.8146 3.73315C4.565 4.34342 3.82173 4.65612 3.15057 4.42916C2.47942 4.20724 2.13552 3.52636 2.38512 2.91609C2.63473 2.30582 3.37799 1.99312 4.04915 2.22008C4.72031 2.44704 5.0642 3.12288 4.8146 3.73315Z" fill="white"/>
<path d="M3.9159 8.16117C3.59419 7.85351 3.05061 7.84343 2.71226 8.141L0.476918 10.0979C0.138566 10.3904 0.127472 10.8847 0.454731 11.1923C0.776442 11.5 1.32002 11.5101 1.65838 11.2125L3.89372 9.25562C4.23207 8.9631 4.24316 8.46883 3.9159 8.16117Z" fill="white"/>
<path d="M3.16173 8.13593C2.82338 8.42846 2.81229 8.92273 3.13955 9.23039L5.29168 11.2629C5.6134 11.5706 6.15698 11.5807 6.49533 11.2831C6.83368 10.9906 6.84477 10.4963 6.51752 10.1887L4.36538 8.15611C4.04367 7.85349 3.50008 7.84341 3.16173 8.13593Z" fill="white"/>
<path d="M6.43429 6.36566C6.1625 6.27488 5.87407 6.31522 5.6522 6.4514C4.2766 7.06167 2.84554 7.18272 1.31464 6.36062C1.27026 6.3354 1.22034 6.31522 1.17042 6.29505C0.721134 6.14374 0.227473 6.35053 0.0610702 6.75906C-0.105332 7.16759 0.122084 7.61646 0.571371 7.76777C2.44063 8.67057 4.38199 8.88239 6.46202 7.83333C6.67834 7.75264 6.86139 7.59124 6.94459 7.37941C7.11099 6.97089 6.88357 6.51697 6.43429 6.36566Z" fill="white"/>
</g>
<defs>
<clipPath id="clip0_26_496">
<rect width="7" height="11" fill="white" transform="translate(0 0.5)"/>
</clipPath>
</defs>
</svg>
