<svg width="10" height="10" viewBox="0 0 10 10" fill="none" xmlns="http://www.w3.org/2000/svg">
<path fill-rule="evenodd" clip-rule="evenodd" d="M1.25 4.50121C1.25 2.70562 2.69013 1.25 4.4666 1.25C5.31973 1.25 6.13786 1.59254 6.74109 2.20226C7.34435 2.81198 7.68324 3.63894 7.68324 4.50121C7.68324 6.29682 6.24309 7.75246 4.4666 7.75246C2.69013 7.75246 1.25 6.29682 1.25 4.50121ZM7.63002 7.12036L8.588 7.89365H8.60465C8.79845 8.08955 8.79845 8.40718 8.60465 8.60308C8.41081 8.79897 8.0966 8.79897 7.90276 8.60308L7.10776 7.69194C7.03261 7.61622 6.99035 7.5134 6.99035 7.40615C6.99035 7.2989 7.03261 7.19608 7.10776 7.12036C7.2527 6.9764 7.48505 6.9764 7.63002 7.12036Z" fill="white"/>
</svg>
