<svg width="17" height="16" viewBox="0 0 17 16" fill="none" xmlns="http://www.w3.org/2000/svg">
<path fill-rule="evenodd" clip-rule="evenodd" d="M8.49996 14.6667C12.18 14.6667 15.1666 11.6867 15.1666 8.00006C15.1666 4.32007 12.18 1.3334 8.49996 1.3334C4.81329 1.3334 1.83329 4.32007 1.83329 8.00006C1.83329 11.6867 4.81329 14.6667 8.49996 14.6667ZM6.37329 10.4734C6.29329 10.5201 6.20663 10.5467 6.11329 10.5467C5.94663 10.5467 5.77996 10.4601 5.68663 10.3001C5.54663 10.0667 5.61996 9.76006 5.85996 9.6134L8.23329 8.20006V5.12007C8.23329 4.84007 8.45996 4.62007 8.73329 4.62007C9.00663 4.62007 9.23329 4.84007 9.23329 5.12007V8.48673C9.23329 8.66006 9.13996 8.82006 8.98663 8.9134L6.37329 10.4734Z" fill="white"/>
</svg>
