<svg width="12" height="6" viewBox="0 0 12 6" fill="none" xmlns="http://www.w3.org/2000/svg">
<g clip-path="url(#clip0_26_494)">
<path d="M0.114482 0.907238C0.0135714 0.677876 -0.11537 0.438755 0.190166 0.309434C0.809647 0.302114 1.42913 0.294794 2.05141 0.287474C2.32051 0.294794 2.44384 0.468035 2.5868 0.709596C3.00446 1.40988 3.43894 2.10773 3.96311 2.74945C4.1341 2.95929 4.42282 3.03981 4.64987 2.70553C4.6751 2.25413 4.70033 1.80272 4.72555 1.35132C4.64146 0.826717 4.43123 0.516835 4.06403 0.485115C3.85379 0.306994 4.00516 0.160593 4.47608 0.0825121C5.2245 -0.0565688 5.87762 0.00687163 6.45225 0.0703121C6.93719 0.0971522 7.00726 0.382634 6.99885 0.709596C6.98204 1.3074 6.96802 1.90764 6.96802 2.50545C7.11098 3.11301 7.4922 2.86901 7.74447 2.60549C8.19577 2.04673 8.5882 1.5026 8.91616 0.890158C9.25534 0.260633 9.34784 0.306994 9.5861 0.304554C10.1551 0.302114 10.783 0.277713 11.2371 0.292354C12.1846 0.243553 12.0752 0.609556 11.8089 0.997518C11.3492 1.6734 10.7578 2.28341 10.2308 2.92757C9.91126 3.30577 9.91686 3.54246 10.256 3.74742C10.7578 4.2281 11.3016 4.67706 11.7585 5.18947C12.2546 5.74823 11.8902 5.90195 11.4277 5.94343C10.8755 5.94343 10.3233 5.94343 9.7711 5.94343C9.30019 5.95075 8.87412 5.84827 8.57419 5.41151C7.88182 4.61362 7.36606 4.39402 7.15863 4.84298C7.06893 5.04063 6.99325 5.30659 6.99605 5.56523C6.99885 5.92635 6.74938 5.95563 6.41021 5.96539C6.04581 5.96539 5.66739 6.04347 5.3142 5.96539C4.06403 5.68967 2.86431 5.18215 1.69542 3.43753C1.16844 2.68357 0.641462 1.85884 0.114482 0.907238Z" fill="white"/>
</g>
<defs>
<clipPath id="clip0_26_494">
<rect width="12" height="6" fill="white"/>
</clipPath>
</defs>
</svg>
